<svg width="318" height="471" viewBox="0 0 318 471" fill="none" xmlns="http://www.w3.org/2000/svg">
<path d="M5.4238 151.056C9.07351 94.5462 70.4597 88.0672 114.882 88.0672C132.095 88.0672 147.262 84.4169 155.772 67.4151C162.074 54.823 163.34 39.9966 171.162 27.7172C181.637 11.2743 206.499 5.45888 224.456 5.45888C237.022 5.45888 265.599 2.06835 274.763 13.7197C281.365 22.1133 272.741 36.3281 267.872 42.6326C251.147 64.2895 227.843 80.4202 211.247 102.524C199.234 118.525 192.501 161.675 224.456 153.695C251.747 146.879 276.216 143.566 300.951 160.349C315.541 170.249 314.506 181.889 310.139 197.753C306.183 212.125 298.892 232.681 285.215 240.778C265.667 252.349 234.676 247.088 212.97 247.088C200.231 247.088 193.865 247.579 195.627 261.659C197.443 276.169 225.464 288.759 235.253 297.571C259.121 319.059 259.002 340.054 254.434 369.968C247.619 414.595 201.141 466 153.13 466C130.093 466 95.043 457.312 88.4654 430.433C79.9344 395.57 94.6529 356.582 107.072 324.419C119.706 291.699 116.045 260.948 85.8237 237.909C65.8339 222.67 39.5948 215.346 20.6998 199.129C4.83998 185.518 4.14852 170.802 5.4238 151.056Z" stroke="#C7C7CC" stroke-width="10" stroke-linecap="round"/>
</svg>
