<svg width="348" height="304" viewBox="0 0 348 304" fill="none" xmlns="http://www.w3.org/2000/svg">
<path d="M116.098 4.94346V110.093V135.44C116.098 149.033 87.4065 142.173 77.784 142.173C63.3002 142.173 48.5427 141.273 34.1243 142.569C24.5925 143.426 8.95616 142.522 0.265799 147.123C-3.83355 149.294 40.7816 184.265 44.7175 187.52C55.1442 196.143 66.175 204.336 77.685 211.481C81.2449 213.691 92.5418 216.344 94.5153 219.798C98.4666 226.713 44.0177 249.546 38.2266 251.283C32.5091 252.999 23.1305 259.139 18.0861 261.976C14.2393 264.14 22.5161 268.196 23.8282 268.709C34.414 272.852 39.8299 279.051 50.3136 283.759C60.0114 288.113 64.0122 290.075 94.6143 303.462C103.496 307.348 127.851 288.997 131.245 286.432C144.072 276.74 156.173 266.115 169.162 256.63C173.497 253.465 169.162 256.63 180.647 245.145C185.597 240.194 190.222 246.602 194.903 251.283C206.183 262.564 210.265 268.709 227.474 283.759C228.969 287.046 249.823 270.827 253.314 268.709C274.428 255.897 291.78 240.194 317.368 240.194C329.193 240.194 320.349 235.259 315.586 228.412C299.768 205.672 283.021 183.147 267.477 160.329C261.809 152.009 269.129 162.747 253.314 142.173C250.139 139.856 244.831 131.769 243.018 127.915C242.475 126.761 267.67 124.719 270.342 124.351C293.743 121.123 315.53 114.315 339.346 113.559C348.473 113.269 349.829 114.257 345.979 107.915C342.217 101.718 340.004 93.6953 337.465 86.9247C332.619 74.0011 327.39 61.6368 320.66 49.5207C317.48 43.7962 315.586 38.6413 313.903 31.6765C313.903 18.8291 302.914 27.8634 293.508 29.8943C265.704 35.8981 238.892 46.8076 212.723 57.6174C204.727 60.9203 204.723 63.772 197.081 57.5184C178.866 42.6139 158.004 28.4157 137.68 16.6268C131.212 12.8748 122.284 8.19328 118.276 1.37906C115.951 -2.57398 116.098 3.0355 116.098 4.94346Z" fill="#BDBCBC"/>
</svg>
