<svg width="308" height="461" viewBox="0 0 308 461" fill="none" xmlns="http://www.w3.org/2000/svg">
<path d="M0.423801 146.056C4.07351 89.5462 65.4597 83.0672 109.882 83.0672C127.095 83.0672 142.262 79.4169 150.772 62.4151C157.074 49.823 158.34 34.9966 166.162 22.7172C176.637 6.27432 201.499 0.458879 219.456 0.458879C232.022 0.458879 260.599 -2.93165 269.763 8.71971C276.365 17.1133 267.741 31.3281 262.872 37.6326C246.147 59.2895 222.843 75.4202 206.247 97.5236C194.234 113.525 187.501 156.675 219.456 148.695C246.747 141.879 271.216 138.566 295.951 155.349C310.541 165.249 309.506 176.889 305.139 192.753C301.183 207.125 293.892 227.681 280.215 235.778C260.667 247.349 229.676 242.088 207.97 242.088C195.231 242.088 188.865 242.579 190.627 256.659C192.443 271.169 220.464 283.759 230.253 292.571C254.121 314.059 254.002 335.054 249.434 364.968C242.619 409.595 196.141 461 148.13 461C125.093 461 90.043 452.312 83.4654 425.433C74.9344 390.57 89.6529 351.582 102.072 319.419C114.706 286.699 111.045 255.948 80.8237 232.909C60.8339 217.67 34.5948 210.346 15.6998 194.129C-0.160018 180.518 -0.851478 165.802 0.423801 146.056Z" fill="#858484"/>
</svg>
